# 3D Robot Model (OBJ)
mtllib cute_robot.mtl

# Head
v -1.0  2.5  0.8
v  1.0  2.5  0.8
v  1.0  1.0  0.8
v -1.0  1.0  0.8
v -1.0  2.5 -0.8
v  1.0  2.5 -0.8
v  1.0  1.0 -0.8
v -1.0  1.0 -0.8

usemtl White
f 1 2 3 4
f 2 6 7 3
f 6 5 8 7
f 5 1 4 8
f 5 6 2 1
f 4 3 7 8

# Screen (Front of head)
v -0.8  2.3  0.81
v  0.8  2.3  0.81
v  0.8  1.2  0.81
v -0.8  1.2  0.81

usemtl ScreenBlack
f 9 10 11 12

# Body
v -0.8  0.8  0.6
v  0.8  0.8  0.6
v  0.8 -0.8  0.6
v -0.8 -0.8  0.6
v -0.8  0.8 -0.6
v  0.8  0.8 -0.6
v  0.8 -0.8 -0.6
v -0.8 -0.8 -0.6

usemtl BodyWhite
f 13 14 15 16
f 14 18 19 15
f 18 17 20 19
f 17 13 16 20
f 17 18 14 13
f 16 15 19 20

# Number Badge
v -0.3  0.2  0.61
v  0.3  0.2  0.61
v  0.3 -0.2  0.61
v -0.3 -0.2  0.61

usemtl AccentBlue
f 21 22 23 24